<svg height="1024" preserveAspectRatio="none" viewBox="0 0 1024 1024" width="1024" xmlns="http://www.w3.org/2000/svg" xmlns:xlink="http://www.w3.org/1999/xlink"><radialGradient id="a" cx="719.6" cy="344.6" gradientUnits="userSpaceOnUse" r="410.0375" spreadMethod="pad"><stop offset="0" stop-color="#fff" stop-opacity=".098039"/><stop offset="1" stop-color="#fff" stop-opacity="0"/></radialGradient><path d="m969.6 351.25q-8.6-20.85-19.4-40.85-6.1-11.35-12.9-22.4-29.35-47.55-71.55-89.8-138.25-138.25-333.8-138.25-195.5 0-333.75 138.25-138.25 138.25-138.25 333.75 0 195.55 138.25 333.8 138.25 138.2 333.75 138.2 195.55 0 333.8-138.2 76.15-76.2 110.35-169.75 27.85-76.25 27.85-164.05 0-67.35-16.4-127.95-1.85-6.85-3.9-13.6-6.15-19.95-14.05-39.15z" fill-opacity=".098039"/><path d="m513.05 984q193.65-1.1 330.8-138.2 136.45-136.5 138.2-328.85h-469z" fill="#2b9f65"/><path d="m513.05 516.95v-1.95h-2-472.95q1.05 193.65 138.2 330.8 138.25 138.2 333.75 138.2.5 0 1 0 1 0 2 0z" fill="#eeb631"/><path d="m511.05 40.05q-.5 0-1 0-195.5 0-333.75 138.2-138.2 138.25-138.2 333.75 0 1.5 0 3h472.95z" fill="#3872d1"/><path d="m982.05 516.95q0-2.45 0-4.95 0-195.5-138.2-333.75-137.85-137.8-332.8-138.2v474.95h2v1.95z" fill="#d13e36"/><path d="m862.4 528.8q.35-8.32617188.35-16.8 0-145.3-102.7-248-102.75-102.7-248.05-102.7-145.3 0-248 102.7-102.7 102.7-102.7 248 0 145.3 102.7 248.05 102.7 102.7 248 102.7 47.11347656 0 89.75-10.8 88.86660156-22.50039062 158.3-91.9 96.71054688-96.75761719 102.35-231.25z" fill="#fff"/><path d="m760.05 760.05q84.87480469-84.91601563 99.6-198.9l-192.75-192.75-37.9 23.3-163.9-4.55-72.1 11.15v202.7l-44.5 68q-20.61054687 162.12050781 192.65 192.65 31.36875-2.29550781 60.6-9.7 88.86660156-22.50039062 158.3-91.9z" fill-opacity=".098039"/><path d="m871.75 334.8.6.85 6.05 5.95z" fill="url(#a)"/><path d="m872.35 335.65-.6-.85v.25z" fill="#4285f4"/><path d="m733.85 784v-206.25l-141.65-142.55q-6.45-3.1-11.8-8.6-12.2-11.7-12.2-29.05v-2.85q0-.45 0-.95v-123.6h-234.2q-17.35 0-29.05 12.15-11.8 11.8-12.25 28.65v475.15q93.75 76.65 219.3 76.65.55 0 1.05 0 46.55-.1 88.7-10.8 72.5-18.35 132.1-67.95z" fill="#12b965"/><path d="m733.85 577.75v-138.9h-124.35q-7.05 0-13.1-2-2.15-.7-4.2-1.65z" fill="#2b9f65"/><path d="m733.85 438.85v-3.3l-165.65-166.15v.75 123.6q0 .5 0 .95v2.85q0 17.35 12.2 29.05 5.35 5.5 11.8 8.6 2.05.95 4.2 1.65 6.05 2 13.1 2zm-152.95-15q.9.85 1.85 1.75-.65-.55-1.25-1.05z" fill="#16ec80"/><path d="m401.2 586.05v200.55h221.15v-200.55zm27.6 62.15v-34.6h69.2v34.6zm0 110.85v-34.6h69.2v34.6zm0-55.65v-34.6h69.2v34.6zm165.95-89.8v34.6h-69.2v-34.6zm-69.2 145.45v-34.6h69.2v34.6zm69.2-55.65h-69.2v-34.6h69.2z" fill="#f1f1f1"/></svg>